<?xml version="1.0" encoding="UTF-8" standalone="no"?>
<!-- Created with Inkscape (http://www.inkscape.org/) -->

<svg
   width="36"
   height="36"
   viewBox="0 0 9.5249999 9.5249999"
   version="1.1"
   id="svg5"
   inkscape:version="1.2.2 (732a01da63, 2022-12-09)"
   sodipodi:docname="brayandiazc.svg"
   xml:space="preserve"
   inkscape:export-filename="brayandiazc.png"
   inkscape:export-xdpi="6666.6665"
   inkscape:export-ydpi="6666.6665"
   xmlns:inkscape="http://www.inkscape.org/namespaces/inkscape"
   xmlns:sodipodi="http://sodipodi.sourceforge.net/DTD/sodipodi-0.dtd"
   xmlns="http://www.w3.org/2000/svg"
   xmlns:svg="http://www.w3.org/2000/svg"><sodipodi:namedview
     id="namedview7"
     pagecolor="#ffffff"
     bordercolor="#000000"
     borderopacity="0.25"
     inkscape:showpageshadow="2"
     inkscape:pageopacity="0.0"
     inkscape:pagecheckerboard="0"
     inkscape:deskcolor="#d1d1d1"
     inkscape:document-units="px"
     showgrid="false"
     inkscape:zoom="9.5144351"
     inkscape:cx="4.8347589"
     inkscape:cy="18.288001"
     inkscape:window-width="2160"
     inkscape:window-height="1369"
     inkscape:window-x="-8"
     inkscape:window-y="-8"
     inkscape:window-maximized="1"
     inkscape:current-layer="layer1"
     showguides="false" /><defs
     id="defs2" /><g
     inkscape:label="Layer 1"
     inkscape:groupmode="layer"
     id="layer1"><rect
       style="fill:#eaedf3;fill-opacity:1;stroke-width:0.608289"
       id="rect226"
       width="9.5249996"
       height="9.5249996"
       x="1.4073487e-07"
       y="1.4073487e-07"
       ry="1.2791966" /><g
       aria-label="B"
       id="text534"
       style="font-size:3.175px;font-family:SirinStencil;-inkscape-font-specification:SirinStencil;fill:#212737;fill-opacity:1;stroke-width:0.264583"
       transform="matrix(3.6630036,0,0,3.6630036,68.139585,27.748066)"><path
         d="m -17.090807,-6.4671471 v 0.3429 h -0.708025 v -0.3429 z m -0.238125,0.3429 0.0381,-0.263525 q 0.263525,0 0.43815,0.0635 0.174625,0.0635 0.26035,0.1778 0.0889,0.1143 0.0889,0.276225 0,0.307975 -0.2286,0.4572 -0.2286,0.149225 -0.650875,0.149225 -0.0762,0 -0.174625,-0.00635 -0.09525,-0.00635 -0.19685,-0.022225 -0.09842,-0.015875 -0.180975,-0.04445 -0.1651,-0.060325 -0.1651,-0.212725 v -1.51765 q 0,-0.060325 0.03492,-0.09525 0.03493,-0.034925 0.09208,-0.053975 0.10795,-0.0381 0.26035,-0.053975 0.155575,-0.015875 0.3175,-0.015875 0.3937,0 0.606425,0.136525 0.2159,0.136525 0.2159,0.41275 0,0.1524 -0.0889,0.26035 -0.0889,0.10795 -0.26035,0.1651 -0.168275,0.05715 -0.409575,0.05715 l -0.02222,-0.212725 q 0.1524,0 0.225425,-0.060325 0.07303,-0.060325 0.07303,-0.17145 0,-0.104775 -0.08573,-0.161925 -0.08255,-0.05715 -0.250825,-0.05715 -0.06032,0 -0.127,0.00635 -0.06668,0.00317 -0.111125,0.0127 v 1.235075 q 0.05398,0.0127 0.130175,0.01905 0.07937,0.00635 0.149225,0.00635 0.15875,0 0.254,-0.060325 0.09842,-0.0635 0.09842,-0.1905 0,-0.12065 -0.08255,-0.1778 -0.08255,-0.05715 -0.24765,-0.05715 z"
         style="font-weight:bold;font-family:'Baloo 2';-inkscape-font-specification:'Baloo 2 Bold';fill:#212737;fill-opacity:1"
         id="path586" /></g></g></svg>
